
        <svg xmlns="http://www.w3.org/2000/svg" xmlns:xlink="http://www.w3.org/1999/xlink" version="1.1" width="3171.4285714285716" 
        height="2317.464962309843" viewBox="0 0 3171.4285714285716 2317.464962309843">
			
			<g transform="scale(8.57142857142857) translate(10, 10)">
				<defs id="SvgjsDefs1586"></defs><g id="SvgjsG1587" featureKey="LwVBM5-0" transform="matrix(0.2741728234508033,0,0,0.2741728234508033,92.74811845051045,-18.32832941474592)" fill="#ffffff"><g xmlns="http://www.w3.org/2000/svg"><path d="M245.083,85.363c1.387-16.695,37.794-26.755,50.912-9.62c1.478,115.457-0.75,327.646,2.488,456.301   c-0.876,2.041-2.793,0.76-3.062,0.09C279.248,439.319,259.077,157.252,245.083,85.363z"></path><path d="M145.684,132.234c-1.252-12.524,22.792-32.397,38.956-21.582c36.59,124.562,64.289,285.598,93.792,402.326   c-0.534,2.109-2.796,1.915-4.162,0.679C242.362,409.449,208.19,275.74,145.684,132.234z"></path><path d="M109.908,170.41c-0.805-21.235,17.255-33.158,29.865-29.053c54.327,104.946,89.735,254.92,128.046,365.557   c-0.266,2.161-1.589,2.131-3.097,1.073C219.274,407.179,190.486,321.225,109.908,170.41z"></path><path d="M80.36,210.74c-3.924-16.897,12.206-37.424,24.218-34.437c54.793,92.779,108.191,225.392,150.454,321.783   c-0.174,1.987-2.431,2.102-3.958,1.302C202.392,402.567,161.165,327.974,80.36,210.74z"></path><path d="M63.888,251.5c-5.831-6.892-2.406-34.202,12.534-35.13c57.11,83.546,112.587,168.605,163.497,270.474   c-0.114,1.855-1.428,2.133-2.993,1.602C188.795,409.945,154.167,353.876,63.888,251.5z"></path><path d="M54.94,310.129c-10.54-8.526-8.116-47.97,6.805-50.061c56.397,60.682,116.883,141.427,161.882,216.897   c-0.273,1.606-0.408,2.794-3.239,2.024C179.065,422.072,149.92,372.809,54.94,310.129z"></path><path d="M57.245,368.44c-4.942-7.944-19.972-41.259-8.093-53.996c47.912,29.366,105.34,81.033,142.293,132.325   c0.062,1.147-0.109,2.006-1.718,2.406C142.386,406.404,84.584,412.387,57.245,368.44z"></path><path d="M192.462,103.348c3.887-19.433,30.535-28.453,43.255-15.164c22.378,121.91,33.65,302.258,54.034,435.452   c-0.557,2.101-2.816,1.899-4.17,0.644C259.347,416.414,217.403,198.785,192.462,103.348z"></path><path d="M147.491,435.758c11.841-2.764,36.953,19.127,37.895,20.131c5.456,5.796,26.107,24.734,33.436,32.587   c5.307,5.687,31.646,24.675,37.611,28.198c8.727,5.156-7.763,6.579-17.294,7.242c-10.324,0.715-64.77,0.187-73.489-4.22   C156.504,515.072,138.983,437.739,147.491,435.758z"></path><path d="M354.917,85.363c-1.387-16.695-37.795-26.755-50.912-9.62c-1.479,115.457,0.75,327.646-2.488,456.301   c0.876,2.041,2.793,0.76,3.062,0.09C320.753,439.319,340.923,157.252,354.917,85.363z"></path><path d="M454.316,132.234c1.252-12.524-22.792-32.397-38.956-21.582c-36.59,124.562-64.289,285.598-93.791,402.326   c0.533,2.109,2.797,1.915,4.162,0.679C357.638,409.449,391.81,275.74,454.316,132.234z"></path><path d="M490.093,170.41c0.805-21.235-17.256-33.158-29.865-29.053c-54.327,104.946-89.735,254.92-128.047,365.557   c0.266,2.161,1.59,2.131,3.098,1.073C380.726,407.179,409.514,321.225,490.093,170.41z"></path><path d="M519.64,210.74c3.924-16.897-12.206-37.424-24.219-34.437c-54.793,92.779-108.191,225.392-150.453,321.783   c0.174,1.987,2.432,2.102,3.959,1.302C397.608,402.567,438.835,327.974,519.64,210.74z"></path><path d="M536.112,251.5c5.83-6.892,2.406-34.202-12.534-35.13c-57.11,83.546-112.587,168.605-163.497,270.474   c0.115,1.855,1.429,2.133,2.993,1.602C411.204,409.945,445.833,353.876,536.112,251.5z"></path><path d="M545.06,310.129c10.539-8.526,8.115-47.97-6.805-50.061c-56.397,60.682-116.883,141.427-161.883,216.897   c0.273,1.606,0.408,2.794,3.239,2.024C420.935,422.072,450.079,372.809,545.06,310.129z"></path><path d="M542.755,368.44c4.941-7.944,19.972-41.259,8.094-53.996c-47.912,29.366-105.341,81.033-142.293,132.325   c-0.062,1.147,0.108,2.006,1.718,2.406C457.614,406.404,515.415,412.387,542.755,368.44z"></path><path d="M407.538,103.348c-3.887-19.433-30.535-28.453-43.256-15.164c-22.378,121.91-33.65,302.258-54.033,435.452   c0.557,2.101,2.816,1.899,4.17,0.644C340.653,416.414,382.597,198.785,407.538,103.348z"></path><path d="M452.509,435.758c-11.841-2.764-36.953,19.127-37.895,20.131c-5.455,5.796-26.107,24.734-33.436,32.587   c-5.308,5.687-31.646,24.675-37.611,28.198c-8.727,5.156,7.763,6.579,17.294,7.242c10.323,0.715,64.77,0.187,73.489-4.22   C443.496,515.072,461.017,437.739,452.509,435.758z"></path></g></g><g id="SvgjsG1588" featureKey="YhTCwJ-0" transform="matrix(3.4505704830574535,0,0,3.4505704830574535,-6.211025882287283,127.02053172626832)" fill="#ffffff"><path d="M10.5 9.34 c0 2.34 -2.32 2.96 -2.98 3.12 c-0.32 0.08 -0.34 0.1 -0.34 0.16 s0.04 0.06 0.4 0.1 c2.6 0.26 3.52 1.94 3.52 3.38 c0 1.16 -0.58 2.54 -2.02 3.32 c-0.8 0.44 -2.02 0.64 -3.18 0.64 c-0.36 0 -1.98 -0.04 -2.3 -0.04 c-0.5 0 -0.9 0.02 -1.8 0.08 c0.14 -2.06 0.18 -2.88 0.18 -5.96 c0 -2.64 -0.04 -5.28 -0.18 -7.92 c0.72 0.08 1.42 0.06 2.14 0.06 c2.92 0 4.34 0.02 5.26 0.66 c0.8 0.56 1.3 1.44 1.3 2.4 z M8.42 9.62 c0 -1.8 -1.52 -2.52 -3.1 -2.52 c-0.4 0 -0.94 0.04 -1.4 0.1 c-0.04 0.82 -0.06 1.7 -0.06 2.54 s0.02 1.72 0.04 2.58 c1.26 0.06 1.74 0.04 2.38 -0.1 c1.36 -0.3 2.14 -1.3 2.14 -2.6 z M8.92 16.16 c0 -2.94 -2.82 -3 -3.84 -3 c-0.38 0 -0.64 0.02 -1.18 0.06 c-0.02 0.98 -0.04 2.04 -0.04 3.04 c0 0.96 0.02 1.94 0.06 2.88 c0.36 0.02 0.6 0.04 1.04 0.04 c0.7 0 1.88 0 2.52 -0.36 c1.18 -0.66 1.44 -1.72 1.44 -2.66 z M20.3675 14.86 l-5.06 0 c-0.4 0.92 -1.2 2.7 -1.86 5.24 c-0.24 -0.04 -0.44 -0.12 -0.82 -0.12 s-0.62 0.08 -0.88 0.12 c1.78 -3.88 4.74 -10.4 6.16 -14 c0.16 0.02 0.28 0.06 0.5 0.06 c0.18 0 0.28 -0.02 0.44 -0.06 c1.54 4.2 5.96 13.92 6 14 c-0.34 -0.06 -0.68 -0.12 -1.18 -0.12 c-0.52 0 -0.9 0.06 -1.28 0.12 c-0.7 -2.4 -1.52 -4.14 -2.02 -5.24 z M19.9675 13.86 l-2.16 -4.96 l-2.1 4.96 l4.26 0 z M36.535 19.86 l0 0.24 c-0.42 -0.06 -0.74 -0.12 -1.18 -0.12 c-0.42 0 -0.88 0.06 -1.44 0.12 c-1.9 -3 -3.36 -4.88 -4.9 -6.7 l-0.52 0 c0 1.42 -0.02 3.5 0.14 6.7 c-0.34 -0.08 -0.8 -0.12 -1.16 -0.12 c-0.54 0 -0.76 0.06 -1.06 0.12 c0.1 -2.36 0.14 -4.74 0.14 -7.66 c0 -1.86 -0.06 -3.94 -0.12 -6.18 c0.76 0.08 1.32 0.08 1.74 0.08 c0.36 0 2 -0.02 2.32 -0.02 c2.38 0 3.12 0.3 3.78 0.84 c0.76 0.62 1.02 1.44 1.02 2.4 c0 2.86 -2.7 3.36 -3.92 3.58 c0.74 1.14 4.92 6.38 5.16 6.72 z M33.215 9.78 c0 -2.34 -1.98 -2.64 -3.44 -2.64 c-0.58 0 -1 0.06 -1.26 0.1 c-0.04 0.9 -0.04 1.82 -0.04 2.72 c0 0.92 0.02 2.32 0.02 2.74 c0.38 0.04 0.58 0.04 1.06 0.02 c0.9 -0.04 3.66 -0.16 3.66 -2.94 z M46.8625 9.34 c0 2.34 -2.32 2.96 -2.98 3.12 c-0.32 0.08 -0.34 0.1 -0.34 0.16 s0.04 0.06 0.4 0.1 c2.6 0.26 3.52 1.94 3.52 3.38 c0 1.16 -0.58 2.54 -2.02 3.32 c-0.8 0.44 -2.02 0.64 -3.18 0.64 c-0.36 0 -1.98 -0.04 -2.3 -0.04 c-0.5 0 -0.9 0.02 -1.8 0.08 c0.14 -2.06 0.18 -2.88 0.18 -5.96 c0 -2.64 -0.04 -5.28 -0.18 -7.92 c0.72 0.08 1.42 0.06 2.14 0.06 c2.92 0 4.34 0.02 5.26 0.66 c0.8 0.56 1.3 1.44 1.3 2.4 z M44.7825 9.62 c0 -1.8 -1.52 -2.52 -3.1 -2.52 c-0.4 0 -0.94 0.04 -1.4 0.1 c-0.04 0.82 -0.06 1.7 -0.06 2.54 s0.02 1.72 0.04 2.58 c1.26 0.06 1.74 0.04 2.38 -0.1 c1.36 -0.3 2.14 -1.3 2.14 -2.6 z M45.2825 16.16 c0 -2.94 -2.82 -3 -3.84 -3 c-0.38 0 -0.64 0.02 -1.18 0.06 c-0.02 0.98 -0.04 2.04 -0.04 3.04 c0 0.96 0.02 1.94 0.06 2.88 c0.36 0.02 0.6 0.04 1.04 0.04 c0.7 0 1.88 0 2.52 -0.36 c1.18 -0.66 1.44 -1.72 1.44 -2.66 z M56.73 14.86 l-5.06 0 c-0.4 0.92 -1.2 2.7 -1.86 5.24 c-0.24 -0.04 -0.44 -0.12 -0.82 -0.12 s-0.62 0.08 -0.88 0.12 c1.78 -3.88 4.74 -10.4 6.16 -14 c0.16 0.02 0.28 0.06 0.5 0.06 c0.18 0 0.28 -0.02 0.44 -0.06 c1.54 4.2 5.96 13.92 6 14 c-0.34 -0.06 -0.68 -0.12 -1.18 -0.12 c-0.52 0 -0.9 0.06 -1.28 0.12 c-0.7 -2.4 -1.52 -4.14 -2.02 -5.24 z M56.33 13.86 l-2.16 -4.96 l-2.1 4.96 l4.26 0 z M75.4775 12.8 c0 5.06 -3.6 7.3 -7.6 7.3 c-0.2 0 -2.66 -0.08 -3.18 -0.08 c-0.54 0 -1 0.02 -2.14 0.08 c0.14 -2.02 0.24 -3.4 0.24 -8 c0 -2.98 -0.04 -3.74 -0.16 -5.88 c1.1 0.04 2.18 0.06 3.28 0.06 c3.58 0 5.5 0 7.36 1.48 c1.74 1.38 2.2 3.3 2.2 5.04 z M73.2575 13.04 c0 -1.5 -0.34 -3.52 -2.02 -4.78 c-1.4 -1.06 -3.1 -1.06 -4.7 -1.06 c-0.96 0 -1.12 0.02 -1.76 0.08 c-0.08 1.84 -0.1 3.88 -0.1 5.72 c0 3.66 0 4.08 0.06 6.06 c0.68 0.08 1.18 0.12 2.14 0.12 c0.86 0 2.78 0 4.14 -0.96 c1.86 -1.32 2.24 -3.58 2.24 -5.18 z M85.065 6.08 c4.18 0 7.52 2.46 7.52 6.96 c0 4.18 -2.96 7.36 -7.72 7.36 c-4.36 0 -7.52 -2.68 -7.52 -7.12 c0 -4.26 2.82 -7.2 7.72 -7.2 z M79.625 13.26 c0 3.9 2.2 6.28 5.28 6.28 c3.16 0 5.4 -2.3 5.4 -6.4 c0 -1.04 -0.18 -2.66 -0.88 -3.84 c-1.08 -1.82 -3.1 -2.36 -4.46 -2.36 c-2.66 0 -5.34 1.8 -5.34 6.32 z M102.1325 8.8 l-0.28 0 c-0.26 -0.76 -0.94 -1.86 -2.78 -1.86 c-2.18 0 -2.56 1.6 -2.56 2.3 c0 1.58 1.32 2.12 2.34 2.52 c2.18 0.84 2.56 0.98 3.26 1.56 c0.92 0.74 1.12 1.8 1.12 2.56 c0 2.08 -1.46 4.46 -5.02 4.46 c-1.32 0 -2.6 -0.32 -3.64 -1.1 c0.3 -1.02 0.34 -1.62 0.36 -1.88 l0.26 0 c0.58 1.2 1.76 2.08 3.34 2.08 c2.1 0 2.96 -1.38 2.96 -2.66 c0 -1.62 -1.14 -2.22 -2.48 -2.76 c-2.34 -0.98 -2.6 -1.08 -3.14 -1.56 c-0.68 -0.56 -1 -1.56 -1 -2.48 c0 -2.58 2.08 -3.88 4.44 -3.88 c1.56 0 2.92 0.6 3.4 0.92 c-0.16 0.3 -0.52 1.1 -0.58 1.78 z"></path></g><g id="SvgjsG1589" featureKey="duLK5n-0" transform="matrix(1.8394428968242433,0,0,1.8394428968242433,3.7625805191316264,212.91985376743327)" fill="#ffffff"><path d="M3.44 5.84 l0 14.16 l-1.68 0 l0 -14.16 l1.68 0 z M10.6465 5.48 q2.58 0 3.96 1.66 l-1.38 1.2 q-0.8 -1.26 -2.58 -1.3 q-1.34 0 -2.18 0.64 t-0.84 1.74 q0 0.96 0.64 1.52 t2.4 1.1 q2.28 0.66 3.23 1.61 t0.95 2.57 q0 1.88 -1.4 3 t-3.58 1.14 q-1.46 0 -2.6 -0.52 t-1.76 -1.44 l1.44 -1.18 q0.46 0.76 1.28 1.17 t1.74 0.41 q1.26 0 2.17 -0.71 t0.91 -1.75 q0 -0.94 -0.53 -1.48 t-1.75 -0.92 l-1.62 -0.54 q-1.82 -0.62 -2.57 -1.55 t-0.75 -2.29 q0 -1.8 1.34 -2.93 t3.48 -1.15 z M18.853 5.84 l0 12.6 l6.48 0 l0 1.56 l-8.16 0 l0 -14.16 l1.68 0 z M32.8995 5.84 l6.02 14.16 l-1.96 0 l-1.44 -3.48 l-7.08 0 l-1.46 3.48 l-1.9 0 l6.24 -14.16 l1.58 0 z M32.0395 8 l-2.94 6.96 l5.78 0 l-2.8 -6.96 l-0.04 0 z M42.466 5.84 l8.2 11.76 l0.04 0 l0 -11.76 l1.68 0 l0 14.16 l-2.12 0 l-8.2 -11.76 l-0.04 0 l0 11.76 l-1.68 0 l0 -14.16 l2.12 0 z M60.4725 5.84 q3.1 0 5.08 1.95 t2.02 5.13 q0 3.16 -1.99 5.1 t-5.07 1.98 l-5.32 0 l0 -14.16 l5.28 0 z M60.0725 18.44 q2.66 0 4.17 -1.41 t1.53 -4.11 q0 -2.6 -1.48 -4.04 t-4.22 -1.48 l-3.2 0 l0 11.04 l3.2 0 z M79.2255 5.84 q2.28 0 3.55 0.98 t1.31 2.9 q0 1.86 -1.24 2.87 t-3.32 1.05 l-2.92 0 l0 6.36 l-1.68 0 l0 -14.16 l4.3 0 z M79.5255 12.08 q1.28 0 2.02 -0.62 t0.74 -1.72 t-0.73 -1.72 t-2.03 -0.62 l-2.92 0 l0 4.68 l2.92 0 z M90.192 5.84 q2.78 0 4.09 0.92 t1.31 2.96 q0 1.5 -0.89 2.47 t-2.65 1.29 l4.02 6.52 l-2.06 0 l-3.84 -6.36 l-2.16 0 l0 6.36 l-1.68 0 l0 -14.16 l3.86 0 z M90.012 12.08 q1.98 0 2.88 -0.55 t0.9 -1.79 q0 -1.2 -0.81 -1.77 t-2.51 -0.57 l-2.46 0 l0 4.68 l2 0 z M104.6785 5.48 q3.2 0 5.28 2.1 t2.12 5.34 q-0.02 3.3 -2.14 5.36 t-5.26 2.08 q-3.2 0 -5.28 -2.11 t-2.12 -5.33 q0 -3.2 2.08 -5.3 t5.32 -2.14 z M99.0785 12.92 q0 2.54 1.6 4.19 t4 1.69 q2.4 0 3.98 -1.68 t1.62 -4.2 q0 -2.46 -1.56 -4.15 t-4.06 -1.73 q-2.44 0.02 -3.99 1.71 t-1.59 4.17 z M118.625 5.84 q2.28 0 3.55 0.98 t1.31 2.9 q0 1.86 -1.24 2.87 t-3.32 1.05 l-2.92 0 l0 6.36 l-1.68 0 l0 -14.16 l4.3 0 z M118.925 12.08 q1.28 0 2.02 -0.62 t0.74 -1.72 t-0.73 -1.72 t-2.03 -0.62 l-2.92 0 l0 4.68 l2.92 0 z M134.6315 5.84 l0 1.56 l-7.22 0 l0 4.44 l6.74 0 l0 1.56 l-6.74 0 l0 5.04 l7.58 0 l0 1.56 l-9.26 0 l0 -14.16 l8.9 0 z M140.998 5.84 q2.78 0 4.09 0.92 t1.31 2.96 q0 1.5 -0.89 2.47 t-2.65 1.29 l4.02 6.52 l-2.06 0 l-3.84 -6.36 l-2.16 0 l0 6.36 l-1.68 0 l0 -14.16 l3.86 0 z M140.818 12.08 q1.98 0 2.88 -0.55 t0.9 -1.79 q0 -1.2 -0.81 -1.77 t-2.51 -0.57 l-2.46 0 l0 4.68 l2 0 z M158.4045 5.84 l0 1.56 l-4.68 0 l0 12.6 l-1.68 0 l0 -12.6 l-4.68 0 l0 -1.56 l11.04 0 z M161.611 5.84 l0 14.16 l-1.68 0 l0 -14.16 l1.68 0 z M173.5775 5.84 l0 1.56 l-7.22 0 l0 4.44 l6.74 0 l0 1.56 l-6.74 0 l0 5.04 l7.58 0 l0 1.56 l-9.26 0 l0 -14.16 l8.9 0 z M180.224 5.48 q2.58 0 3.96 1.66 l-1.38 1.2 q-0.8 -1.26 -2.58 -1.3 q-1.34 0 -2.18 0.64 t-0.84 1.74 q0 0.96 0.64 1.52 t2.4 1.1 q2.28 0.66 3.23 1.61 t0.95 2.57 q0 1.88 -1.4 3 t-3.58 1.14 q-1.46 0 -2.6 -0.52 t-1.76 -1.44 l1.44 -1.18 q0.46 0.76 1.28 1.17 t1.74 0.41 q1.26 0 2.17 -0.71 t0.91 -1.75 q0 -0.94 -0.53 -1.48 t-1.75 -0.92 l-1.62 -0.54 q-1.82 -0.62 -2.57 -1.55 t-0.75 -2.29 q0 -1.8 1.34 -2.93 t3.48 -1.15 z"></path></g>
			</g>
		</svg>
	